<svg width="384" height="192" fill="none" xmlns="http://www.w3.org/2000/svg"><path d="M176.986 0h-4.938v134.42h4.938V0Z" fill="#fff"/><path d="M383.401 0H176.986v134.42h206.415V0Z" fill="#0084BC"/><path d="M172.048 0H0v134.42h172.048V0Z" fill="#CF2023"/><path d="M176.986 0h-4.938v134.42h4.938V0Z" fill="#fff"/><path d="M176.986 0h206.415v134.42H176.986V0Z" fill="#0084BC"/><path d="M172.048 0H0v134.42h172.048V0Z" fill="#CF2023"/><path d="M166.351 97.398V36.712c0-.62.325-.92.977-.92h14.756a.784.784 0 0 1 .6.866v60.689c0 .618-.329.919-.978.919h-14.76a.8.8 0 0 1-.593-.868M189.823 97.346V36.719a.818.818 0 0 1 .927-.924h25.527c3.246-.09 6.484.363 9.582 1.337a19.53 19.53 0 0 1 7.111 4.19 18.407 18.407 0 0 1 4.37 6.407 20.665 20.665 0 0 1 1.528 8.1 20.301 20.301 0 0 1-2.67 10.438 17.945 17.945 0 0 1-7.654 7.048l11.523 23.856a.94.94 0 0 1 0 .78.685.685 0 0 1-.629.32h-15.961a1.385 1.385 0 0 1-1.385-.922l-9.5-21.355h-6a.483.483 0 0 0-.536.326.489.489 0 0 0-.02.224V97.35a.819.819 0 0 1-.228.688.807.807 0 0 1-.686.234h-14.379a.82.82 0 0 1-.889-.55.824.824 0 0 1-.038-.372m16.777-47.965a.486.486 0 0 0-.556.55v12.138a.483.483 0 0 0 .332.532c.072.023.149.03.224.018h8.682a7.65 7.65 0 0 0 5.426-1.794 7.008 7.008 0 0 0 0-9.656 7.645 7.645 0 0 0-5.426-1.793l-8.682.005ZM265.216 35.764h15a1.147 1.147 0 0 1 1.186.921l21.167 60.66c.189.6-.018.921-.635.921h-15.175a1.18 1.18 0 0 1-1.22-.922l-2.918-9.657h-20.36l-2.937 9.657a1.163 1.163 0 0 1-1.2.922h-15.09c-.618 0-.824-.32-.635-.922l21.631-60.659a1.128 1.128 0 0 1 1.186-.922Zm7.278 19.032-6.078 19.476h12.155l-5.8-19.476h-.277Z" fill="#fff"/><path fill-rule="evenodd" clip-rule="evenodd" d="M304.912 97.347V36.686a.808.808 0 0 1 .219-.692.8.8 0 0 1 .687-.23h13.529a1.506 1.506 0 0 1 1.572.921l18.869 35.39h.368v-35.39a.814.814 0 0 1 .921-.921h12.89a.797.797 0 0 1 .688.23.803.803 0 0 1 .219.691v60.662a.815.815 0 0 1-.538.884.812.812 0 0 1-.369.038H340.44a1.53 1.53 0 0 1-1.572-.922l-18.67-35.3h-.567v35.3a.82.82 0 0 1-.92.922H305.82a.815.815 0 0 1-.681-.237.81.81 0 0 1-.225-.685" fill="#fff"/><path d="M43.016 84.333c-.042 1.66.203 3.315.725 4.892a9 9 0 0 0 1.906 3.216 7.37 7.37 0 0 0 2.767 1.813c1.03.387 2.12.586 3.22.587 5.503 0 8.254-3.26 8.255-9.783v-27.63a.801.801 0 0 1 .908-.907h13.608a.8.8 0 0 1 .907.906v28.354a24.964 24.964 0 0 1-1.95 10.42 18.43 18.43 0 0 1-5.262 6.887 20.567 20.567 0 0 1-7.621 3.759 35.378 35.378 0 0 1-9.027 1.131 34.268 34.268 0 0 1-8.982-1.177 20.593 20.593 0 0 1-7.665-3.85 19.555 19.555 0 0 1-5.353-6.977 24.515 24.515 0 0 1-2.041-10.555c.03-2.96.394-5.909 1.089-8.787a32.1 32.1 0 0 1 3.356-8.7c.24-.422.727-.543 1.451-.361l12.156 3.262a.86.86 0 0 1 .637.545c.059.244.026.502-.092.724a43.93 43.93 0 0 0-2.087 5.436 22.842 22.842 0 0 0-.905 6.795ZM84.848 35.746h13.047a1.615 1.615 0 0 1 1.615 1.615v49.985a1.613 1.613 0 0 1-1.613 1.613H84.853a1.616 1.616 0 0 1-1.617-1.62V37.36a1.612 1.612 0 0 1 1.612-1.613ZM109.198 50.522a.81.81 0 0 1 .231-.69.81.81 0 0 1 .69-.23h13.811a.812.812 0 0 1 .922.92v20.963a3.798 3.798 0 0 0 1.657 3.173 7.702 7.702 0 0 0 4.7 1.24h7.917a4.598 4.598 0 0 0 3.362-1.057c.705-.704 1.058-1.976 1.059-3.816v-20.5a.81.81 0 0 1 .231-.69.811.811 0 0 1 .69-.23h13.9a.815.815 0 0 1 .92.92v26.85c0 3.984-.828 6.91-2.486 8.778-1.657 1.868-4.42 2.8-8.287 2.8h-14.732a17.1 17.1 0 0 1-5.247-.689 8.06 8.06 0 0 1-3.682-2.527v1.193c0 7.295-1.519 12.628-4.558 16-3.039 3.372-7.965 5.057-14.778 5.055h-5.063a.823.823 0 0 1-.372-.032.82.82 0 0 1-.515-.514.813.813 0 0 1-.034-.372V95.85a.81.81 0 0 1 .921-.919h1.841c2.945 0 4.833-.828 5.663-2.482a16.991 16.991 0 0 0 1.242-7.357l-.003-34.57ZM148.727 96.814h9.922a.666.666 0 0 1 .664.663v9.92a.665.665 0 0 1-.664.666h-9.922a.665.665 0 0 1-.665-.666v-9.92a.666.666 0 0 1 .665-.663Z" fill="#fff"/><path d="M134.185 96.814h9.921a.663.663 0 0 1 .665.663v9.92a.665.665 0 0 1-.665.666h-9.921a.665.665 0 0 1-.664-.666v-9.92a.667.667 0 0 1 .664-.663ZM49.292 35.746h9.922a.665.665 0 0 1 .665.663v9.921a.666.666 0 0 1-.665.666h-9.922a.666.666 0 0 1-.665-.666v-9.92a.667.667 0 0 1 .665-.664ZM383.401 134.42H0V192h383.401v-57.58Z" fill="#fff"/><path d="M45.644 151.295H42.11a.337.337 0 0 0-.38.383v22.41a4.777 4.777 0 0 1-1.34 3.779 5.243 5.243 0 0 1-3.566 1.168 6.843 6.843 0 0 1-1.8-.249 4.438 4.438 0 0 1-1.668-.862 4.586 4.586 0 0 1-1.226-1.63 5.859 5.859 0 0 1-.48-2.509 8.693 8.693 0 0 1 .557-3.164c.326-.866.717-1.706 1.17-2.512a.494.494 0 0 0 .056-.288c-.012-.09-.082-.16-.21-.213l-3.105-1.225c-.283-.128-.474-.1-.575.077a14.739 14.739 0 0 0-1.61 3.565 13.662 13.662 0 0 0-.653 4.14 9.772 9.772 0 0 0 .707 3.874 7.45 7.45 0 0 0 1.97 2.74 8.306 8.306 0 0 0 2.967 1.63c1.209.369 2.467.549 3.73.536a12.838 12.838 0 0 0 3.827-.536 8.085 8.085 0 0 0 2.965-1.63 7.182 7.182 0 0 0 1.912-2.74c.47-1.223.698-2.526.672-3.835v-22.527a.335.335 0 0 0-.095-.287.345.345 0 0 0-.287-.096M93.36 155.399h3.68a.344.344 0 0 0 .29-.097.34.34 0 0 0 .094-.29v-3.326a.338.338 0 0 0-.095-.289.337.337 0 0 0-.289-.098h-3.68a.343.343 0 0 0-.371.232.338.338 0 0 0-.014.155v3.329a.342.342 0 0 0 .228.372c.05.017.104.022.156.015M144.756 155.399h3.222a.34.34 0 0 0 .381-.387v-3.326a.34.34 0 0 0-.381-.387h-3.222a.344.344 0 0 0-.288.098.34.34 0 0 0-.094.289v3.329a.34.34 0 0 0 .382.387M147.747 150.319h3.22a.35.35 0 0 0 .29-.099.336.336 0 0 0 .081-.134.333.333 0 0 0 .013-.157v-3.328a.327.327 0 0 0-.014-.155.323.323 0 0 0-.082-.133.344.344 0 0 0-.288-.097h-3.22a.34.34 0 0 0-.384.385v3.328a.347.347 0 0 0 .095.291.344.344 0 0 0 .289.099ZM150.353 151.686v3.329a.344.344 0 0 0 .095.29.336.336 0 0 0 .289.097h3.22a.344.344 0 0 0 .289-.097.327.327 0 0 0 .082-.134.33.33 0 0 0 .014-.156v-3.329a.338.338 0 0 0-.229-.372.344.344 0 0 0-.156-.015h-3.22a.344.344 0 0 0-.289.098.329.329 0 0 0-.081.134.327.327 0 0 0-.014.155ZM201.242 155.399h3.681a.343.343 0 0 0 .289-.097.327.327 0 0 0 .082-.134.33.33 0 0 0 .013-.156v-3.326a.34.34 0 0 0-.384-.387h-3.681a.344.344 0 0 0-.289.098.329.329 0 0 0-.081.134.327.327 0 0 0-.014.155v3.329a.339.339 0 0 0 .384.387M248.754 155.399h3.219a.344.344 0 0 0 .371-.231.344.344 0 0 0 .013-.156v-3.326a.34.34 0 0 0-.384-.387h-3.219a.344.344 0 0 0-.289.098.329.329 0 0 0-.081.134.327.327 0 0 0-.014.155v3.329a.344.344 0 0 0 .095.29.336.336 0 0 0 .289.097M254.733 155.399h3.22a.344.344 0 0 0 .289-.097.344.344 0 0 0 .095-.29v-3.326a.34.34 0 0 0-.384-.387h-3.22a.344.344 0 0 0-.289.098.329.329 0 0 0-.081.134.327.327 0 0 0-.014.155v3.329a.344.344 0 0 0 .095.29.336.336 0 0 0 .289.097M298.101 155.399h3.68a.344.344 0 0 0 .289-.098.332.332 0 0 0 .081-.133.33.33 0 0 0 .014-.156v-3.326a.327.327 0 0 0-.014-.155.344.344 0 0 0-.37-.232h-3.68a.344.344 0 0 0-.371.232.34.34 0 0 0-.013.155v3.329a.344.344 0 0 0 .095.289.336.336 0 0 0 .289.098M339.89 178.269h-3.221a.331.331 0 0 0-.156.015.332.332 0 0 0-.214.216.335.335 0 0 0-.013.157v3.326a.344.344 0 0 0 .095.29.342.342 0 0 0 .288.097h3.221a.344.344 0 0 0 .288-.098.344.344 0 0 0 .095-.289v-3.326a.348.348 0 0 0-.013-.157.323.323 0 0 0-.082-.133.333.333 0 0 0-.288-.098ZM345.893 178.269h-3.222a.33.33 0 0 0-.156.015.325.325 0 0 0-.133.083.335.335 0 0 0-.095.29v3.326a.344.344 0 0 0 .095.29.346.346 0 0 0 .289.097h3.222a.34.34 0 0 0 .382-.387v-3.326a.335.335 0 0 0-.094-.29.34.34 0 0 0-.288-.098ZM354.474 151.296h-3.534a.335.335 0 0 0-.286.097.34.34 0 0 0-.094.286v22.949a.34.34 0 0 0 .38.383h3.534a.335.335 0 0 0 .285-.097.334.334 0 0 0 .095-.286v-22.949a.334.334 0 0 0-.226-.368.335.335 0 0 0-.154-.015Z" fill="#002537"/><path d="M204.914 159.1h-3.534a.334.334 0 0 0-.367.227.33.33 0 0 0-.013.153v9.671a2.22 2.22 0 0 1-.442 1.585 1.904 1.904 0 0 1-1.4.439h-34.772a3.942 3.942 0 0 1-2.32-.61 2.022 2.022 0 0 1-.861-1.76v-9.325a.344.344 0 0 0-.095-.285.328.328 0 0 0-.132-.081.33.33 0 0 0-.153-.014h-3.534a.335.335 0 0 0-.367.227.317.317 0 0 0-.014.153v7.951c.006.644-.02 1.287-.078 1.928a2.365 2.365 0 0 1-.366 1.148 1.395 1.395 0 0 1-.83.536c-.469.1-.949.144-1.428.132a3.114 3.114 0 0 1-1.932-.554 2.044 2.044 0 0 1-.733-1.745v-6.401a.335.335 0 0 0-.226-.369.335.335 0 0 0-.154-.015h-3.534a.34.34 0 0 0-.287.096.332.332 0 0 0-.093.288v4.91c0 .818-.021 1.47-.058 1.955a2.484 2.484 0 0 1-.33 1.149 1.286 1.286 0 0 1-.829.556 6.628 6.628 0 0 1-1.526.135 2.974 2.974 0 0 1-2.028-.573 2.323 2.323 0 0 1-.636-1.8v-6.325a.34.34 0 0 0-.38-.384h-3.535a.34.34 0 0 0-.367.23.335.335 0 0 0-.013.154v4.903c0 .691-.007 1.272-.019 1.743a3.72 3.72 0 0 1-.191 1.17c-.094.281-.284.52-.537.673-.328.159-.691.23-1.054.209h-35.237a3.942 3.942 0 0 1-2.32-.61 2.02 2.02 0 0 1-.863-1.76v-9.325a.334.334 0 0 0-.226-.365.334.334 0 0 0-.153-.015h-3.534a.321.321 0 0 0-.154.014.329.329 0 0 0-.213.213.331.331 0 0 0-.013.153v8.1c0 .662-.013 1.222-.04 1.682-.009.378-.08.752-.21 1.108-.101.266-.3.484-.555.612-.327.14-.68.205-1.035.189H55.93a1.922 1.922 0 0 1-1.4-.439 2.228 2.228 0 0 1-.44-1.589v-17.47a.336.336 0 0 0-.38-.382h-3.535a.337.337 0 0 0-.38.382v18.5a5.466 5.466 0 0 0 1.025 3.662 4.337 4.337 0 0 0 3.422 1.169h38.1a7.832 7.832 0 0 0 2.876-.426 2.958 2.958 0 0 0 1.578-1.549 3.08 3.08 0 0 0 1.758 1.608 8.073 8.073 0 0 0 2.32.356c.045 0 .085.01.133.01h36.083a6.59 6.59 0 0 0 2.72-.464 3.151 3.151 0 0 0 1.538-1.586 3.752 3.752 0 0 0 3.72 2.05h1.687a6.948 6.948 0 0 0 2.741-.445 3.084 3.084 0 0 0 1.553-1.568 3.5 3.5 0 0 0 1.438 1.491 4.613 4.613 0 0 0 2.281.522h1.649a6.948 6.948 0 0 0 2.741-.445 1.647 1.647 0 0 1 2.809-1.046c.3.299.473.702.484 1.125.745.231 1.52.351 2.3.356.045 0 .085.01.133.01h35.963a4.344 4.344 0 0 0 3.421-1.169 5.463 5.463 0 0 0 1.027-3.662v-10.7a.335.335 0 0 0-.226-.369.34.34 0 0 0-.155-.014M346.181 159.101h-3.535a.346.346 0 0 0-.366.229.34.34 0 0 0-.014.155v9.669a2.228 2.228 0 0 1-.44 1.586c-.39.326-.894.483-1.4.438h-35.193a3.94 3.94 0 0 1-2.32-.609 2.022 2.022 0 0 1-.863-1.759v-9.325a.342.342 0 0 0-.226-.369.349.349 0 0 0-.154-.015h-3.534a.342.342 0 0 0-.367.228.344.344 0 0 0-.013.156v8.099c0 .664-.013 1.223-.039 1.68-.009.379-.08.754-.21 1.11a1.147 1.147 0 0 1-.556.611c-.326.142-.68.206-1.035.19H261.519a3.94 3.94 0 0 1-2.32-.609 2.022 2.022 0 0 1-.863-1.759v-9.325a.34.34 0 0 0-.224-.369.35.35 0 0 0-.154-.015h-3.269a1.26 1.26 0 0 0-.438.078.302.302 0 0 0-.208.3v7.95c0 .688-.013 1.267-.04 1.738a3.822 3.822 0 0 1-.209 1.146 1.25 1.25 0 0 1-.538.649c-.327.16-.69.233-1.054.211h-34.44a3.949 3.949 0 0 1-2.32-.61 2.033 2.033 0 0 1-.861-1.758v-6.329a.321.321 0 0 0-.014-.154.331.331 0 0 0-.366-.229h-3.535a.34.34 0 0 0-.286.098.332.332 0 0 0-.094.287v10.689c0 .919-.019 1.732-.058 2.435a5.927 5.927 0 0 1-.345 1.801 2.23 2.23 0 0 1-.9 1.133 3.263 3.263 0 0 1-1.724.383h-1.571a.34.34 0 0 0-.288.097.342.342 0 0 0-.096.287v3.065a.357.357 0 0 0 .014.156.346.346 0 0 0 .37.228h2.146a8.71 8.71 0 0 0 3.21-.519 4.718 4.718 0 0 0 2.074-1.553 6.653 6.653 0 0 0 1.121-2.593c.243-1.194.358-2.411.343-3.63v-.729c.397.518.956.886 1.589 1.046a9.357 9.357 0 0 0 2.244.234h34.859a8.107 8.107 0 0 0 2.915-.428 2.927 2.927 0 0 0 1.614-1.548 3.09 3.09 0 0 0 1.76 1.608 8.362 8.362 0 0 0 2.605.367H297.063a7.79 7.79 0 0 0 2.876-.428 2.961 2.961 0 0 0 1.578-1.548 3.083 3.083 0 0 0 1.758 1.608 8.114 8.114 0 0 0 2.32.357c.045 0 .084.01.133.01h36.384a4.332 4.332 0 0 0 1.839-.214 4.334 4.334 0 0 0 1.583-.959 5.446 5.446 0 0 0 1.026-3.658v-10.7a.334.334 0 0 0-.094-.287.333.333 0 0 0-.287-.098" fill="#002537"/><path d="M166.351 97.398V36.712c0-.62.325-.92.977-.92h14.756a.784.784 0 0 1 .6.866v60.689c0 .618-.329.919-.978.919h-14.76a.8.8 0 0 1-.593-.868M189.823 97.346V36.719a.818.818 0 0 1 .927-.924h25.527c3.246-.09 6.484.363 9.582 1.337a19.53 19.53 0 0 1 7.111 4.19 18.407 18.407 0 0 1 4.37 6.407 20.665 20.665 0 0 1 1.528 8.1 20.301 20.301 0 0 1-2.67 10.438 17.945 17.945 0 0 1-7.654 7.048l11.523 23.856a.94.94 0 0 1 0 .78.685.685 0 0 1-.629.32h-15.961a1.385 1.385 0 0 1-1.385-.922l-9.5-21.353h-6a.484.484 0 0 0-.556.55v20.8a.82.82 0 0 1-.228.688.806.806 0 0 1-.686.233h-14.379a.82.82 0 0 1-.889-.55.824.824 0 0 1-.038-.372m16.777-47.965a.491.491 0 0 0-.417.135.486.486 0 0 0-.139.416v12.142a.482.482 0 0 0 .332.532c.072.023.149.03.224.018h8.682a7.65 7.65 0 0 0 5.426-1.794 7.013 7.013 0 0 0 0-9.656 7.645 7.645 0 0 0-5.426-1.793h-8.682ZM265.216 35.764h15a1.147 1.147 0 0 1 1.186.921l21.167 60.66c.189.6-.018.921-.635.921h-15.175a1.18 1.18 0 0 1-1.22-.922l-2.918-9.657h-20.36l-2.937 9.657a1.163 1.163 0 0 1-1.2.922h-15.09c-.618 0-.824-.32-.635-.922l21.631-60.659a1.128 1.128 0 0 1 1.186-.922Zm7.278 19.032-6.078 19.476h12.155l-5.8-19.476h-.277Z" fill="#fff"/><path fill-rule="evenodd" clip-rule="evenodd" d="M304.912 97.347V36.686a.808.808 0 0 1 .219-.692.8.8 0 0 1 .687-.23h13.529a1.506 1.506 0 0 1 1.572.921l18.869 35.39h.368v-35.39a.814.814 0 0 1 .921-.921h12.89a.797.797 0 0 1 .688.23.803.803 0 0 1 .219.691v60.662a.815.815 0 0 1-.538.884.812.812 0 0 1-.369.038H340.44a1.53 1.53 0 0 1-1.572-.922l-18.67-35.3h-.567v35.3a.82.82 0 0 1-.92.922H305.82a.815.815 0 0 1-.681-.237.81.81 0 0 1-.225-.685" fill="#fff"/><path d="M43.016 84.333c-.042 1.66.203 3.315.725 4.892a9 9 0 0 0 1.906 3.216 7.37 7.37 0 0 0 2.767 1.813c1.03.387 2.12.586 3.22.587 5.503 0 8.254-3.26 8.255-9.783v-27.63a.801.801 0 0 1 .908-.907h13.608a.8.8 0 0 1 .907.906v28.354a24.964 24.964 0 0 1-1.95 10.42 18.43 18.43 0 0 1-5.262 6.887 20.529 20.529 0 0 1-7.621 3.757 35.334 35.334 0 0 1-9.027 1.133 34.268 34.268 0 0 1-8.982-1.177 20.593 20.593 0 0 1-7.665-3.85 19.555 19.555 0 0 1-5.353-6.977 24.515 24.515 0 0 1-2.041-10.555c.03-2.96.394-5.909 1.089-8.787a32.1 32.1 0 0 1 3.356-8.7c.24-.422.727-.543 1.451-.361l12.156 3.262a.862.862 0 0 1 .637.544c.06.245.026.503-.092.725a43.93 43.93 0 0 0-2.087 5.436 22.842 22.842 0 0 0-.905 6.795ZM84.848 35.746h13.047a1.615 1.615 0 0 1 1.615 1.615v49.985a1.613 1.613 0 0 1-1.613 1.613H84.853a1.616 1.616 0 0 1-1.617-1.62V37.36a1.612 1.612 0 0 1 1.612-1.613ZM109.198 50.522a.81.81 0 0 1 .231-.69.81.81 0 0 1 .69-.23h13.811a.812.812 0 0 1 .922.92v20.963a3.798 3.798 0 0 0 1.657 3.173 7.702 7.702 0 0 0 4.7 1.24h7.917a4.598 4.598 0 0 0 3.362-1.057c.705-.704 1.058-1.976 1.059-3.816v-20.5a.81.81 0 0 1 .231-.69.811.811 0 0 1 .69-.23h13.9a.815.815 0 0 1 .92.92v26.85c0 3.984-.828 6.91-2.486 8.778-1.657 1.868-4.42 2.8-8.287 2.8h-14.732a17.1 17.1 0 0 1-5.247-.689 8.06 8.06 0 0 1-3.682-2.527v1.193c0 7.295-1.519 12.628-4.558 16-3.039 3.372-7.965 5.057-14.778 5.055h-5.063a.823.823 0 0 1-.372-.032.82.82 0 0 1-.515-.514.813.813 0 0 1-.034-.372V95.85a.81.81 0 0 1 .921-.919h1.841c2.945 0 4.833-.828 5.663-2.482a16.991 16.991 0 0 0 1.242-7.357l-.003-34.57ZM148.727 96.814h9.922a.666.666 0 0 1 .664.663v9.92a.665.665 0 0 1-.664.666h-9.922a.665.665 0 0 1-.665-.666v-9.92a.666.666 0 0 1 .665-.663Z" fill="#fff"/><path d="M134.185 96.814h9.921a.663.663 0 0 1 .665.663v9.92a.665.665 0 0 1-.665.666h-9.921a.665.665 0 0 1-.664-.666v-9.92a.667.667 0 0 1 .664-.663ZM49.292 35.746h9.922a.665.665 0 0 1 .665.663v9.921a.666.666 0 0 1-.665.666h-9.922a.666.666 0 0 1-.665-.666v-9.92a.667.667 0 0 1 .665-.664ZM383.401 134.42H0V192h383.401v-57.58Z" fill="#fff"/><path d="M45.644 151.295H42.11a.337.337 0 0 0-.38.383v22.41a4.777 4.777 0 0 1-1.34 3.779 5.243 5.243 0 0 1-3.566 1.168 6.843 6.843 0 0 1-1.8-.249 4.438 4.438 0 0 1-1.668-.862 4.586 4.586 0 0 1-1.226-1.63 5.859 5.859 0 0 1-.48-2.509 8.693 8.693 0 0 1 .557-3.164c.326-.866.717-1.706 1.17-2.512a.494.494 0 0 0 .056-.288c-.012-.09-.082-.16-.21-.213l-3.105-1.225c-.283-.128-.474-.1-.575.077a14.739 14.739 0 0 0-1.61 3.565 13.662 13.662 0 0 0-.653 4.14 9.772 9.772 0 0 0 .707 3.874 7.45 7.45 0 0 0 1.97 2.74 8.306 8.306 0 0 0 2.967 1.63c1.209.369 2.467.549 3.73.536a12.838 12.838 0 0 0 3.827-.536 8.085 8.085 0 0 0 2.965-1.63 7.182 7.182 0 0 0 1.912-2.74c.47-1.223.698-2.526.672-3.835v-22.527a.335.335 0 0 0-.095-.287.345.345 0 0 0-.287-.096M93.36 155.399h3.68a.344.344 0 0 0 .29-.097.34.34 0 0 0 .094-.29v-3.326a.338.338 0 0 0-.095-.289.337.337 0 0 0-.289-.098h-3.68a.343.343 0 0 0-.371.232.338.338 0 0 0-.014.155v3.329a.342.342 0 0 0 .228.372c.05.017.104.022.156.015M144.756 155.399h3.222a.34.34 0 0 0 .381-.387v-3.326a.34.34 0 0 0-.381-.387h-3.222a.344.344 0 0 0-.288.098.34.34 0 0 0-.094.289v3.329a.34.34 0 0 0 .382.387M147.747 150.319h3.22a.35.35 0 0 0 .29-.099.336.336 0 0 0 .081-.134.333.333 0 0 0 .013-.157v-3.328a.327.327 0 0 0-.014-.155.323.323 0 0 0-.082-.133.344.344 0 0 0-.288-.097h-3.22a.34.34 0 0 0-.384.385v3.328a.347.347 0 0 0 .095.291.344.344 0 0 0 .289.099ZM150.353 151.686v3.329a.344.344 0 0 0 .095.29.336.336 0 0 0 .289.097h3.22a.344.344 0 0 0 .289-.097.327.327 0 0 0 .082-.134.33.33 0 0 0 .014-.156v-3.329a.338.338 0 0 0-.229-.372.344.344 0 0 0-.156-.015h-3.22a.344.344 0 0 0-.289.098.329.329 0 0 0-.081.134.327.327 0 0 0-.014.155ZM201.242 155.399h3.681a.343.343 0 0 0 .289-.097.327.327 0 0 0 .082-.134.33.33 0 0 0 .013-.156v-3.326a.34.34 0 0 0-.384-.387h-3.681a.344.344 0 0 0-.289.098.329.329 0 0 0-.081.134.327.327 0 0 0-.014.155v3.329a.339.339 0 0 0 .384.387M248.754 155.399h3.219a.344.344 0 0 0 .371-.231.344.344 0 0 0 .013-.156v-3.326a.34.34 0 0 0-.384-.387h-3.219a.344.344 0 0 0-.289.098.329.329 0 0 0-.081.134.327.327 0 0 0-.014.155v3.329a.344.344 0 0 0 .095.29.336.336 0 0 0 .289.097M254.733 155.399h3.22a.344.344 0 0 0 .289-.097.344.344 0 0 0 .095-.29v-3.326a.34.34 0 0 0-.384-.387h-3.22a.344.344 0 0 0-.289.098.329.329 0 0 0-.081.134.327.327 0 0 0-.014.155v3.329a.344.344 0 0 0 .095.29.336.336 0 0 0 .289.097M298.101 155.399h3.68a.344.344 0 0 0 .289-.098.332.332 0 0 0 .081-.133.33.33 0 0 0 .014-.156v-3.326a.327.327 0 0 0-.014-.155.344.344 0 0 0-.37-.232h-3.68a.344.344 0 0 0-.371.232.34.34 0 0 0-.013.155v3.329a.344.344 0 0 0 .095.289.336.336 0 0 0 .289.098M339.89 178.269h-3.221a.331.331 0 0 0-.156.015.332.332 0 0 0-.214.216.335.335 0 0 0-.013.157v3.326a.344.344 0 0 0 .095.29.342.342 0 0 0 .288.097h3.221a.344.344 0 0 0 .288-.098.344.344 0 0 0 .095-.289v-3.326a.348.348 0 0 0-.013-.157.323.323 0 0 0-.082-.133.333.333 0 0 0-.288-.098ZM345.893 178.269h-3.222a.33.33 0 0 0-.156.015.325.325 0 0 0-.133.083.335.335 0 0 0-.095.29v3.326a.344.344 0 0 0 .095.29.346.346 0 0 0 .289.097h3.222a.34.34 0 0 0 .382-.387v-3.326a.335.335 0 0 0-.094-.29.34.34 0 0 0-.288-.098ZM354.474 151.296h-3.534a.335.335 0 0 0-.286.097.34.34 0 0 0-.094.286v22.949a.34.34 0 0 0 .38.383h3.534a.335.335 0 0 0 .285-.097.334.334 0 0 0 .095-.286v-22.949a.334.334 0 0 0-.226-.368.335.335 0 0 0-.154-.015Z" fill="#002537"/><path d="M204.914 159.1h-3.534a.334.334 0 0 0-.367.227.33.33 0 0 0-.013.153v9.671a2.22 2.22 0 0 1-.442 1.585 1.904 1.904 0 0 1-1.4.439h-34.772a3.942 3.942 0 0 1-2.32-.61 2.022 2.022 0 0 1-.861-1.76v-9.325a.344.344 0 0 0-.095-.285.328.328 0 0 0-.132-.081.33.33 0 0 0-.153-.014h-3.534a.335.335 0 0 0-.367.227.317.317 0 0 0-.014.153v7.951c.006.644-.02 1.287-.078 1.928a2.365 2.365 0 0 1-.366 1.148 1.395 1.395 0 0 1-.83.536c-.469.1-.949.144-1.428.132a3.114 3.114 0 0 1-1.932-.554 2.044 2.044 0 0 1-.733-1.745v-6.401a.335.335 0 0 0-.226-.369.335.335 0 0 0-.154-.015h-3.534a.34.34 0 0 0-.287.096.332.332 0 0 0-.093.288v4.91c0 .818-.021 1.47-.058 1.955a2.484 2.484 0 0 1-.33 1.149 1.286 1.286 0 0 1-.829.556 6.628 6.628 0 0 1-1.526.135 2.974 2.974 0 0 1-2.028-.573 2.323 2.323 0 0 1-.636-1.8v-6.325a.34.34 0 0 0-.38-.384h-3.535a.34.34 0 0 0-.367.23.335.335 0 0 0-.013.154v4.903c0 .691-.007 1.272-.019 1.743a3.72 3.72 0 0 1-.191 1.17c-.094.281-.284.52-.537.673-.328.159-.691.23-1.054.209h-35.237a3.942 3.942 0 0 1-2.32-.61 2.02 2.02 0 0 1-.863-1.76v-9.325a.334.334 0 0 0-.226-.365.334.334 0 0 0-.153-.015h-3.534a.321.321 0 0 0-.154.014.329.329 0 0 0-.213.213.331.331 0 0 0-.013.153v8.1c0 .662-.013 1.222-.04 1.682-.009.378-.08.752-.21 1.108-.101.266-.3.484-.555.612-.327.14-.68.205-1.035.189H55.93a1.922 1.922 0 0 1-1.4-.439 2.228 2.228 0 0 1-.44-1.589v-17.47a.336.336 0 0 0-.38-.382h-3.535a.337.337 0 0 0-.38.382v18.5a5.466 5.466 0 0 0 1.025 3.662 4.337 4.337 0 0 0 3.422 1.169h38.1a7.832 7.832 0 0 0 2.876-.426 2.958 2.958 0 0 0 1.578-1.549 3.08 3.08 0 0 0 1.758 1.608 8.073 8.073 0 0 0 2.32.356c.045 0 .085.01.133.01h36.083a6.59 6.59 0 0 0 2.72-.464 3.151 3.151 0 0 0 1.538-1.586 3.752 3.752 0 0 0 3.72 2.05h1.687a6.948 6.948 0 0 0 2.741-.445 3.084 3.084 0 0 0 1.553-1.568 3.5 3.5 0 0 0 1.438 1.491 4.613 4.613 0 0 0 2.281.522h1.649a6.948 6.948 0 0 0 2.741-.445 1.647 1.647 0 0 1 2.809-1.046c.3.299.473.702.484 1.125.745.231 1.52.351 2.3.356.045 0 .085.01.133.01h35.963a4.344 4.344 0 0 0 3.421-1.169 5.463 5.463 0 0 0 1.027-3.662v-10.7a.335.335 0 0 0-.226-.369.34.34 0 0 0-.155-.014M346.181 159.101h-3.535a.346.346 0 0 0-.366.229.34.34 0 0 0-.014.155v9.669a2.228 2.228 0 0 1-.44 1.586c-.39.326-.894.483-1.4.438h-35.193a3.94 3.94 0 0 1-2.32-.609 2.022 2.022 0 0 1-.863-1.759v-9.325a.342.342 0 0 0-.226-.369.349.349 0 0 0-.154-.015h-3.534a.342.342 0 0 0-.367.228.344.344 0 0 0-.013.156v8.099c0 .664-.013 1.223-.039 1.68-.009.379-.08.754-.21 1.11a1.147 1.147 0 0 1-.556.611c-.326.142-.68.206-1.035.19H261.519a3.94 3.94 0 0 1-2.32-.609 2.022 2.022 0 0 1-.863-1.759v-9.325a.34.34 0 0 0-.224-.369.35.35 0 0 0-.154-.015h-3.269a1.26 1.26 0 0 0-.438.078.302.302 0 0 0-.208.3v7.95c0 .688-.013 1.267-.04 1.738a3.822 3.822 0 0 1-.209 1.146 1.25 1.25 0 0 1-.538.649c-.327.16-.69.233-1.054.211h-34.44a3.949 3.949 0 0 1-2.32-.61 2.033 2.033 0 0 1-.861-1.758v-6.329a.321.321 0 0 0-.014-.154.331.331 0 0 0-.366-.229h-3.535a.34.34 0 0 0-.286.098.332.332 0 0 0-.094.287v10.689c0 .919-.019 1.732-.058 2.435a5.927 5.927 0 0 1-.345 1.801 2.23 2.23 0 0 1-.9 1.133 3.263 3.263 0 0 1-1.724.383h-1.571a.34.34 0 0 0-.288.097.342.342 0 0 0-.096.287v3.065a.357.357 0 0 0 .014.156.346.346 0 0 0 .37.228h2.146a8.71 8.71 0 0 0 3.21-.519 4.718 4.718 0 0 0 2.074-1.553 6.653 6.653 0 0 0 1.121-2.593c.243-1.194.358-2.411.343-3.63v-.729c.397.518.956.886 1.589 1.046a9.357 9.357 0 0 0 2.244.234h34.859a8.107 8.107 0 0 0 2.915-.428 2.927 2.927 0 0 0 1.614-1.548 3.09 3.09 0 0 0 1.76 1.608 8.362 8.362 0 0 0 2.605.367H297.063a7.79 7.79 0 0 0 2.876-.428 2.961 2.961 0 0 0 1.578-1.548 3.083 3.083 0 0 0 1.758 1.608 8.114 8.114 0 0 0 2.32.357c.045 0 .084.01.133.01h36.384a4.332 4.332 0 0 0 1.839-.214 4.334 4.334 0 0 0 1.583-.959 5.446 5.446 0 0 0 1.026-3.658v-10.7a.334.334 0 0 0-.094-.287.333.333 0 0 0-.287-.098" fill="#002537"/></svg>